<svg width="40" height="40" viewBox="0 0 80 80" fill="none" xmlns="http://www.w3.org/2000/svg" class="logo-icon">
    <path d="M40 0C17.9086 0 0 17.9086 0 40C0 62.0914 17.9086 80 40 80C62.0914 80 80 62.0914 80 40C80 17.9086 62.0914 0 40 0Z" fill="#3B82F6"/>
    <path d="M40 10C23.4315 10 10 23.4315 10 40C10 56.5685 23.4315 70 40 70C56.5685 70 70 56.5685 70 40C70 23.4315 56.5685 10 40 10Z" fill="white"/>
    <path d="M40 20C29.0543 20 20 29.0543 20 40C20 50.9457 29.0543 60 40 60C50.9457 60 60 50.9457 60 40C60 29.0543 50.9457 20 40 20Z" fill="#3B82F6"/>
    <path d="M40 30C34.4772 30 30 34.4772 30 40C30 45.5228 34.4772 50 40 50C45.5228 50 50 45.5228 50 40C50 34.4772 45.5228 30 40 30Z" fill="white"/>
    <path d="M65 15L55 25M15 65L25 55" stroke="#1E40AF" stroke-width="4" stroke-linecap="round"/>
    <path d="M15 15L25 25M65 65L55 55" stroke="#1E40AF" stroke-width="4" stroke-linecap="round"/>
</svg>